<svg width="76" height="76" viewBox="0 0 76 76" fill="none" xmlns="http://www.w3.org/2000/svg">
<path d="M38 76C58.9868 76 76 58.9868 76 38C76 17.0132 58.9868 0 38 0C17.0132 0 0 17.0132 0 38C0 58.9868 17.0132 76 38 76Z" fill="#444950"/>
<path d="M55.9244 47.628L40.7654 20.1779C40.5605 19.8706 40.3557 19.7682 40.0484 19.7682H35.6441C35.3368 19.7682 35.0295 19.973 34.9271 20.1779L20.0754 47.5256C19.9729 47.8329 19.9729 48.1402 20.0754 48.4474L21.0996 50.0862C21.3045 50.2911 21.5093 50.496 21.8166 50.496H32.3665C32.6737 50.496 32.981 50.2911 33.1859 49.9838L35.9514 43.4286H45.6818C45.9891 43.4286 46.2964 43.2237 46.3988 43.0189C46.6037 42.7116 46.6037 42.4043 46.3988 42.097L38.7169 27.9623C38.6144 27.7574 38.3072 27.5526 38.1023 27.5526H37.9999C37.6926 27.5526 37.2829 27.5526 37.0781 27.9623L34.9271 31.8544C34.7223 32.2641 37.8975 30.1132 37.8975 30.1132L40.9702 35.7466H34.1077C33.1859 35.7466 32.264 36.2588 31.7519 37.1806L28.3719 43.8383C28.167 44.248 28.3719 44.7601 28.7816 45.0674C28.884 45.0674 29.0888 45.0674 29.1913 45.0674C29.4985 45.0674 29.8058 44.8625 30.0107 44.5553L33.3907 37.8976C33.5956 37.5903 33.8004 37.3854 34.2101 37.3854H41.9945L44.2479 41.4825H35.4392C35.132 41.4825 34.8247 41.6873 34.6198 41.9946L31.8543 48.5499H22.4311L21.919 47.7305L36.2586 21.3046H39.6387L54.2856 47.8329L53.8759 48.4474H50.8031L49.3692 46.8086C49.1643 46.6038 48.9594 46.5013 48.7546 46.5013H39.3314C38.8193 46.5013 38.512 46.911 38.512 47.4232C38.512 47.9353 38.9217 48.345 39.3314 48.345H48.3449L49.7789 49.9838C49.9837 50.1887 50.1886 50.2911 50.3934 50.2911H54.388C54.6953 50.2911 55.0026 50.0862 55.105 49.779L55.9244 48.2426C56.1293 47.9353 56.1293 47.628 55.9244 47.3207V47.628Z" fill="white"/>
</svg>
