<svg width="75" height="12" viewBox="0 0 75 12" fill="none" xmlns="http://www.w3.org/2000/svg">
<path d="M11.7606 0H0V11.522H2.732V2.67658H5.47268V11.522H8.20468V2.67658H10.9367V11.522H13.7121V1.7419H11.83V0H11.7606ZM21.7433 0V1.7419H19.8959V11.522H22.6279V2.67658H25.7762V0H21.7433ZM15.3859 11.522H18.118V0H15.3859V11.522ZM51.1535 0H39.3929V11.522H42.0555V2.68508H44.7875V11.522H47.5282V2.68508H50.2602V11.522H52.9315V1.7419H51.1535V0ZM61.9601 0H56.5568V1.80988H54.8222V9.78014H56.5568V11.522H63.5993V8.84546H57.4415V7.14604H63.7294V1.7419H61.8907V0H61.9601ZM57.5108 2.6171H61.0668V4.42698H57.5108V2.6171ZM72.8274 0H67.4241V1.80988H65.6895V9.78014H67.4241V11.522H74.4666V8.84546H68.3521V7.14604H74.6401V1.7419H72.7927V0H72.8274ZM68.3521 2.6171H71.9081V4.42698H68.3521V2.6171ZM34.8049 8.98141H30.2949V0H27.6236V9.78014H29.4016V11.522H37.5455V0H34.8049V8.98141Z" fill="black"/>
<path d="M11.7606 0H0V11.522H2.732V2.67658H5.47268V11.522H8.20468V2.67658H10.9367V11.522H13.7121V1.7419H11.83V0H11.7606ZM21.7433 0V1.7419H19.8959V11.522H22.6279V2.67658H25.7762V0H21.7433ZM15.3859 11.522H18.118V0H15.3859V11.522ZM51.1535 0H39.3929V11.522H42.0555V2.68508H44.7875V11.522H47.5282V2.68508H50.2602V11.522H52.9315V1.7419H51.1535V0ZM61.9601 0H56.5568V1.80988H54.8222V9.78014H56.5568V11.522H63.5993V8.84546H57.4415V7.14604H63.7294V1.7419H61.8907V0H61.9601ZM57.5108 2.6171H61.0668V4.42698H57.5108V2.6171ZM72.8274 0H67.4241V1.80988H65.6895V9.78014H67.4241V11.522H74.4666V8.84546H68.3521V7.14604H74.6401V1.7419H72.7927V0H72.8274ZM68.3521 2.6171H71.9081V4.42698H68.3521V2.6171ZM34.8049 8.98141H30.2949V0H27.6236V9.78014H29.4016V11.522H37.5455V0H34.8049V8.98141Z" fill="black"/>
<path d="M11.7606 0H0V11.522H2.732V2.67658H5.47268V11.522H8.20468V2.67658H10.9367V11.522H13.7121V1.7419H11.83V0H11.7606ZM21.7433 0V1.7419H19.8959V11.522H22.6279V2.67658H25.7762V0H21.7433ZM15.3859 11.522H18.118V0H15.3859V11.522ZM51.1535 0H39.3929V11.522H42.0555V2.68508H44.7875V11.522H47.5282V2.68508H50.2602V11.522H52.9315V1.7419H51.1535V0ZM61.9601 0H56.5568V1.80988H54.8222V9.78014H56.5568V11.522H63.5993V8.84546H57.4415V7.14604H63.7294V1.7419H61.8907V0H61.9601ZM57.5108 2.6171H61.0668V4.42698H57.5108V2.6171ZM72.8274 0H67.4241V1.80988H65.6895V9.78014H67.4241V11.522H74.4666V8.84546H68.3521V7.14604H74.6401V1.7419H72.7927V0H72.8274ZM68.3521 2.6171H71.9081V4.42698H68.3521V2.6171ZM34.8049 8.98141H30.2949V0H27.6236V9.78014H29.4016V11.522H37.5455V0H34.8049V8.98141Z" fill="black"/>
</svg>
