<svg width="70" height="72" viewBox="0 0 70 72" fill="none" xmlns="http://www.w3.org/2000/svg">
<path fill-rule="evenodd" clip-rule="evenodd" d="M34.1108 0L50.7677 10.003V29.5045L35.1066 38.5704L18.2424 28.8444V9.20292L34.1108 0ZM19.6566 10.8314V28.0358L34.3988 36.5381V19.409L19.6566 10.8314ZM35.813 19.4112V36.5358L49.3535 28.6974V11.6178L35.813 19.4112ZM48.6727 10.3863L35.1078 18.1937L34.8116 18.0213V2.06222L48.6727 10.3863ZM33.3974 2.04023V17.1985L20.3501 9.60709L33.3974 2.04023ZM32.5253 42.8708L15.8684 32.8677L0 42.0706V61.7121L16.8641 71.4382L32.5253 62.3722V42.8708ZM1.41414 60.9035V43.6991L16.1564 52.2767V69.4058L1.41414 60.9035ZM17.5706 69.4035V52.2789L31.1111 44.4855V61.5651L17.5706 69.4035ZM16.8654 51.0614L30.4302 43.254L15.8558 34.5015L2.10765 42.4748L16.8654 51.0614ZM70 43.4326L53.343 33.4296L37.4747 42.6325V62.274L54.3388 72L70 62.9341V43.4326ZM38.8888 61.4653V44.261L53.6311 52.8386V69.9676L38.8888 61.4653ZM55.0453 69.9653V52.8408L68.5858 45.0473V62.1269L55.0453 69.9653ZM54.3401 51.6233L67.9049 43.8158L53.3305 35.0634L39.5823 43.0367L54.3401 51.6233ZM49.9965 31.8091L35.1193 40.1303L19.0173 31L18.3162 32.2198L34.4098 41.3454V60.4043H35.8239V41.3482L50.6904 33.033L49.9965 31.8091Z" fill="#3C3E4C"/>
</svg>
