<svg width="70" height="72" viewBox="0 0 70 72" fill="none" xmlns="http://www.w3.org/2000/svg">
<path fill-rule="evenodd" clip-rule="evenodd" d="M33.1745 42.7734L16.1848 32.5859L0 41.9582V61.9556L17.2011 71.8609L33.1745 62.6282V42.7734ZM1.4238 61.1491V42.7624L16.1721 34.222L31.7507 43.5633V61.8232L17.1998 70.2338L1.4238 61.1491ZM70 43.4329L53.2294 33.4298L37.2527 42.6328V62.2743L54.232 72.0003L70 62.9343V43.4329ZM38.6764 61.4656V43.4391L53.2167 35.0637L68.5762 44.225V62.1272L54.2306 70.3753L38.6764 61.4656Z" fill="#3C3E4C"/>
<path fill-rule="evenodd" clip-rule="evenodd" d="M34.3439 0L51.1145 10.003V29.5045L35.3465 38.5704L18.3672 28.8444V9.20292L34.3439 0ZM19.791 10.0093V28.0358L35.3452 36.9455L49.6907 28.6974V10.7952L34.3312 1.63381L19.791 10.0093Z" fill="#DD3333"/>
<path fill-rule="evenodd" clip-rule="evenodd" d="M35.3592 40.3784L50.3381 32.0571L51.0367 33.281L36.0687 41.5962V60.6523H34.6449V41.5935L18.4414 32.4679L19.1473 31.248L35.3592 40.3784Z" fill="#3C3E4C"/>
</svg>
