<svg width="70" height="72" viewBox="0 0 70 72" fill="none" xmlns="http://www.w3.org/2000/svg"><path fill-rule="evenodd" clip-rule="evenodd" d="M36.644 1.957l-14.5 9.5.712 1.087 14.5-9.5-.712-1.087zm3.513 1.99l-14.5 9 .686 1.105 14.5-9-.686-1.105zm-11.5 11l14.5-9 .686 1.105-14.5 9-.686-1.105zm17.5-7l-14.5 9 .686 1.105 14.5-9-.686-1.105z" fill="#D33"/><path fill-rule="evenodd" clip-rule="evenodd" d="M50.525 10.003L33.868 0 18 9.203v19.641l16.864 9.726 15.661-9.066V10.003zm-31.11 18.033V10.83l14.741 8.578v17.13l-14.742-8.503zm16.156 8.5V19.41l13.54-7.793v17.08l-13.54 7.838zm-.706-18.342l13.565-7.808-14.574-8.752-13.748 7.973 14.757 8.587zm.254 21.936l14.877-8.32.694 1.223-14.866 8.315v19.056H34.41V41.345L18.316 32.22l.701-1.22 16.102 9.13zm-2.594 2.74L15.868 32.869 0 42.07v19.641l16.864 9.726 15.661-9.066v-19.5zM1.415 60.905V43.699l14.741 8.578v17.129L1.414 60.903zm16.156 8.5V52.278l13.54-7.794v17.08l-13.54 7.838zm-.706-18.343l13.565-7.807-14.574-8.752-13.748 7.973 14.757 8.586zM70 43.433L53.343 33.43l-15.868 9.203v19.641L54.339 72 70 62.934V43.433zM38.889 61.465V44.261l14.742 8.578v17.129L38.89 61.465zm16.156 8.5V52.841l13.54-7.794v17.08l-13.54 7.838zm-.705-18.342l13.565-7.807-14.575-8.753-13.748 7.974 14.758 8.586z" fill="#3C3E4C"/></svg>