<svg width="338" height="129" viewBox="0 0 338 129" fill="none" xmlns="http://www.w3.org/2000/svg">
<path d="M0.5 114.065H3.16615L11.4821 125.896L19.818 114.065H22.4047V127.808H20.7508V115.423L12.0643 127.808H10.847L2.16055 115.423V127.808H0.5V114.065Z" fill="#444950" stroke="#444950" stroke-linecap="round" stroke-linejoin="round"/>
<path d="M25.9375 114.065H27.5914V127.807H25.9375V114.065Z" fill="#444950" stroke="#444950" stroke-linecap="round" stroke-linejoin="round"/>
<path d="M31.0515 114.065H42.43C44.5205 114.065 45.4929 114.335 46.214 115.113C46.7697 115.733 47.0608 116.78 47.0608 118.263C47.0608 120.491 46.5448 121.269 44.8446 121.664C46.2537 121.934 46.7896 122.653 46.7896 124.241V127.807H45.1357V125.19C45.1754 122.818 44.58 122.244 42.1786 122.264H32.7054V127.807H31.0515V114.065ZM41.7883 120.966C44.6197 120.966 45.3474 120.412 45.3474 118.184C45.3474 115.957 44.5999 115.443 41.6891 115.443H32.712V120.966H41.7949H41.7883Z" fill="#444950" stroke="#444950" stroke-linecap="round" stroke-linejoin="round"/>
<path d="M66.4186 114.065V123.398C66.4186 124.92 66.3789 125.335 66.2135 125.83C65.5718 127.563 64.1429 127.952 58.2949 127.952C53.5185 127.952 51.9441 127.701 51.0378 126.838C50.5416 126.363 50.2902 125.81 50.2108 125.006C50.1711 124.676 50.1711 124.347 50.1711 123.398V114.065H51.825V123.108C51.825 124.386 51.825 124.511 51.9044 124.841C52.2351 126.284 53.1018 126.508 58.2949 126.508C62.6809 126.508 63.7989 126.344 64.3546 125.579C64.725 125.065 64.7713 124.841 64.7713 123.108V114.065H66.4252H66.4186Z" fill="#444950" stroke="#444950" stroke-linecap="round" stroke-linejoin="round"/>
<path d="M69.8528 114.065H72.5189L80.8349 125.896L89.1708 114.065H91.7575V127.808H90.1036V115.423L81.4171 127.808H80.1998L71.5133 115.423V127.808H69.8594V114.065H69.8528Z" fill="#444950" stroke="#444950" stroke-linecap="round" stroke-linejoin="round"/>
<path d="M95.2971 114.065H109.031V115.443H96.951V120.036H108.594V121.335H96.951V126.423H109.137V127.8H95.2971V114.058V114.065Z" fill="#444950" stroke="#444950" stroke-linecap="round" stroke-linejoin="round"/>
<path d="M112.035 114.065H125.768V115.443H113.689V120.036H125.332V121.335H113.689V126.423H125.874V127.8H112.035V114.058V114.065Z" fill="#444950" stroke="#444950" stroke-linecap="round" stroke-linejoin="round"/>
<path d="M134.429 121.691V123.068H127.542V121.691H134.429Z" fill="#444950" stroke="#444950" stroke-linecap="round" stroke-linejoin="round"/>
<path d="M137.982 124.716L136.163 127.807H134.323L142.454 114.065H144.789L152.919 127.807H151.1L149.281 124.716H137.988H137.982ZM143.631 115.218L138.769 123.417H148.487L143.625 115.218H143.631Z" fill="#444950" stroke="#444950" stroke-linecap="round" stroke-linejoin="round"/>
<path d="M155.057 114.065H166.436C168.526 114.065 169.499 114.335 170.22 115.113C170.776 115.733 171.067 116.78 171.067 118.263C171.067 120.491 170.551 121.269 168.85 121.664C170.26 121.934 170.795 122.653 170.795 124.241V127.807H169.142V125.19C169.181 122.818 168.586 122.244 166.184 122.264H156.711V127.807H155.057V114.065ZM165.794 120.966C168.626 120.966 169.353 120.412 169.353 118.184C169.353 115.957 168.606 115.443 165.695 115.443H156.718V120.966H165.801H165.794Z" fill="#444950" stroke="#444950" stroke-linecap="round" stroke-linejoin="round"/>
<path d="M174.296 114.065H175.95V127.807H174.296V114.065Z" fill="#444950" stroke="#444950" stroke-linecap="round" stroke-linejoin="round"/>
<path d="M181.719 124.716L179.899 127.807H178.06L186.191 114.065H188.526L196.656 127.807H194.837L193.018 124.716H181.725H181.719ZM187.368 115.218L182.506 123.417H192.224L187.362 115.218H187.368Z" fill="#444950" stroke="#444950" stroke-linecap="round" stroke-linejoin="round"/>
<path d="M198.794 114.065H209.531C212.574 114.065 214.102 114.619 214.929 116.062C215.551 117.07 215.842 118.698 215.842 120.926C215.842 123.154 215.551 124.801 214.929 125.81C214.102 127.253 212.574 127.807 209.531 127.807H198.794V114.065ZM209.65 126.429C211.595 126.429 212.858 125.975 213.414 125.091C213.89 124.307 214.115 123.028 214.115 121.012C214.115 118.889 213.864 117.446 213.368 116.682C212.812 115.838 211.628 115.443 209.524 115.443H200.441V126.423H209.643L209.65 126.429Z" fill="#444950" stroke="#444950" stroke-linecap="round" stroke-linejoin="round"/>
<path d="M218.932 114.065H221.598L234.63 126.634V114.065H236.284V127.807H233.618L220.586 115.238V127.807H218.932V114.065Z" fill="#444950" stroke="#444950" stroke-linecap="round" stroke-linejoin="round"/>
<path d="M239.812 114.065H253.545V115.443H241.465V120.036H253.108V121.335H241.465V126.423H253.651V127.8H239.812V114.058V114.065Z" fill="#444950" stroke="#444950" stroke-linecap="round" stroke-linejoin="round"/>
<path d="M277.997 123.193V123.773C277.997 125.421 277.831 126.146 277.296 126.759C276.78 127.378 276.098 127.668 274.835 127.807C274.047 127.866 271.692 127.952 269.827 127.952C264.845 127.952 263.622 127.747 262.609 126.693C261.723 125.783 261.511 124.696 261.511 120.946C261.511 116.662 261.802 115.568 263.205 114.685C264.257 114.025 265.394 113.92 271.084 113.92C274.537 113.92 275.741 114.085 276.588 114.704C277.521 115.344 277.805 116.207 277.871 118.395H276.257V118.046C276.257 115.614 275.675 115.37 269.886 115.37C263.271 115.37 263.225 115.39 263.225 120.952C263.225 124.083 263.37 125.072 263.946 125.671C264.607 126.35 265.659 126.515 269.529 126.515C275.734 126.515 276.376 126.291 276.376 123.978V123.193H277.99H277.997Z" fill="#444950" stroke="#444950" stroke-linecap="round" stroke-linejoin="round"/>
<path d="M297.447 115.179C298.333 116.108 298.545 117.176 298.545 120.926C298.545 124.676 298.34 125.77 297.447 126.693C296.395 127.787 295.336 127.952 289.667 127.952C283.998 127.952 282.946 127.787 281.887 126.693C281.001 125.764 280.789 124.696 280.789 120.946C280.789 117.196 280.994 116.082 281.887 115.179C282.939 114.085 283.998 113.92 289.746 113.92C295.495 113.92 296.388 114.105 297.44 115.179H297.447ZM283.237 116.207C282.655 116.807 282.516 117.795 282.516 120.946C282.516 124.096 282.661 125.065 283.237 125.665C283.938 126.41 284.811 126.508 289.667 126.508C294.523 126.508 295.396 126.383 296.097 125.665C296.679 125.065 296.818 124.076 296.818 120.946C296.818 117.815 296.673 116.807 296.097 116.207C295.455 115.508 294.298 115.363 289.746 115.363C285.195 115.363 283.892 115.508 283.23 116.207H283.237Z" fill="#444950" stroke="#444950" stroke-linecap="round" stroke-linejoin="round"/>
<path d="M301.755 114.065H313.133C315.224 114.065 316.196 114.335 316.917 115.113C317.473 115.733 317.764 116.78 317.764 118.263C317.764 120.491 317.248 121.269 315.548 121.664C316.957 121.934 317.493 122.653 317.493 124.241V127.807H315.839V125.19C315.879 122.818 315.283 122.244 312.882 122.264H303.408V127.807H301.755V114.065ZM312.491 120.966C315.323 120.966 316.051 120.412 316.051 118.184C316.051 115.957 315.31 115.443 312.392 115.443H303.415V120.966H312.498H312.491Z" fill="#444950" stroke="#444950" stroke-linecap="round" stroke-linejoin="round"/>
<path d="M320.98 114.065H332.107C334.277 114.065 335.124 114.269 335.792 114.975C336.394 115.594 336.619 116.477 336.619 118.125C336.619 120.142 336.348 120.992 335.521 121.651C334.839 122.185 333.973 122.416 332.478 122.416H322.634V127.813H320.98V114.072V114.065ZM331.26 121.031C334.237 121.031 334.899 120.517 334.899 118.23C334.899 115.943 334.237 115.449 331.591 115.449H322.634V121.031H331.26Z" fill="#444950" stroke="#444950" stroke-linecap="round" stroke-linejoin="round"/>
<path d="M76.363 0.592255H82.694C83.8583 0.592255 84.3148 0.697707 84.7117 1.05361C85.102 1.42269 85.2674 1.89064 85.2674 2.69471C85.2674 3.49879 85.0888 3.85469 84.5926 4.13809C84.414 4.23037 84.3346 4.26991 84.2155 4.30286C85.1417 4.46763 85.5518 5.02126 85.5518 6.1351C85.5518 7.01167 85.3864 7.52575 84.9829 7.90802C84.5463 8.31006 83.9906 8.47483 83.0512 8.47483H76.3697V0.592255H76.363ZM82.0258 3.97992C83.296 3.97992 83.5871 3.94696 83.8649 3.78219C84.1494 3.60424 84.2817 3.26152 84.2817 2.7079C84.2817 1.7061 83.8781 1.38315 82.5881 1.38315H77.3157V3.97992H82.0324H82.0258ZM82.6212 7.67075C84.1824 7.67075 84.5661 7.37417 84.5661 6.16805C84.5661 4.96194 84.2089 4.71808 82.4095 4.71808H77.3157V7.67075H82.6278H82.6212Z" fill="#444950" stroke="#444950" stroke-linecap="round" stroke-linejoin="round"/>
<path d="M96.7056 0.592255V5.93738C96.7056 6.81395 96.6792 7.04463 96.5865 7.32803C96.2161 8.31665 95.4024 8.54073 92.0484 8.54073C89.3096 8.54073 88.4099 8.40233 87.8873 7.90143C87.6028 7.63121 87.4573 7.30826 87.411 6.8535C87.3845 6.66236 87.3845 6.47782 87.3845 5.93079V0.592255H88.3305V5.77261C88.3305 6.50418 88.3305 6.57668 88.3768 6.76122C88.5687 7.58507 89.0648 7.71689 92.0418 7.71689C94.5556 7.71689 95.1973 7.62462 95.5148 7.18303C95.7265 6.88645 95.753 6.75463 95.753 5.76602V0.592255H96.699H96.7056Z" fill="#444950" stroke="#444950" stroke-linecap="round" stroke-linejoin="round"/>
<path d="M98.8567 0.592255H99.8027V8.46824H98.8567V0.592255Z" fill="#444950" stroke="#444950" stroke-linecap="round" stroke-linejoin="round"/>
<path d="M101.966 0.592255H102.912V7.67734H109.183V8.46824H101.966V0.592255Z" fill="#444950" stroke="#444950" stroke-linecap="round" stroke-linejoin="round"/>
<path d="M110.804 0.592255H116.957C118.697 0.592255 119.576 0.908612 120.053 1.73905C120.41 2.31904 120.575 3.24834 120.575 4.52695C120.575 5.80556 120.41 6.74804 120.053 7.32803C119.576 8.15188 118.703 8.47483 116.957 8.47483H110.804V0.592255ZM117.023 7.67075C118.134 7.67075 118.862 7.41371 119.18 6.90622C119.451 6.45805 119.583 5.72647 119.583 4.56649C119.583 3.3472 119.444 2.52335 119.16 2.08836C118.842 1.60723 118.167 1.38315 116.957 1.38315H111.757V7.67734H117.03L117.023 7.67075Z" fill="#444950" stroke="#444950" stroke-linecap="round" stroke-linejoin="round"/>
<path d="M122.541 0.592255H123.487V8.46824H122.541V0.592255Z" fill="#444950" stroke="#444950" stroke-linecap="round" stroke-linejoin="round"/>
<path d="M125.65 0.592255H127.179L134.647 7.79598V0.592255H135.593V8.46824H134.065L126.596 1.26451V8.46824H125.65V0.592255Z" fill="#444950" stroke="#444950" stroke-linecap="round" stroke-linejoin="round"/>
<path d="M147.561 4.57969C147.561 5.4365 147.545 6.03186 147.515 6.3658C147.422 7.39396 147.065 8.0069 146.39 8.27712C145.881 8.48803 145.159 8.54734 142.751 8.54734C139.457 8.54734 138.855 8.45507 138.246 7.82895C137.737 7.29509 137.618 6.68215 137.618 4.53356C137.618 2.38496 137.737 1.75884 138.246 1.22499C138.862 0.585681 139.417 0.506592 143.036 0.506592C145.464 0.506592 146.105 0.592272 146.674 0.981128C147.217 1.35021 147.442 1.87747 147.481 2.90564H146.542C146.516 2.16088 146.469 1.94997 146.244 1.74566C145.867 1.38317 145.523 1.33044 143.367 1.33044C140.251 1.33044 139.576 1.38976 139.159 1.68634C138.709 2.01588 138.604 2.54973 138.604 4.53356C138.604 6.32625 138.69 6.90624 139.02 7.23578C139.397 7.63782 139.98 7.7169 142.348 7.7169C145.431 7.7169 145.841 7.67077 146.244 7.2226C146.542 6.90624 146.602 6.60965 146.635 5.37059H142.401V4.57969H147.554H147.561Z" fill="#444950" stroke="#444950" stroke-linecap="round" stroke-linejoin="round"/>
<path d="M152.689 0.592255H159.02C160.184 0.592255 160.64 0.697707 161.037 1.05361C161.428 1.42269 161.593 1.89064 161.593 2.69471C161.593 3.49879 161.414 3.85469 160.918 4.13809C160.74 4.23037 160.66 4.26991 160.541 4.30286C161.467 4.46763 161.878 5.02126 161.878 6.1351C161.878 7.01167 161.712 7.52575 161.309 7.90802C160.872 8.31006 160.316 8.47483 159.377 8.47483H152.695V0.592255H152.689ZM158.358 3.97992C159.628 3.97992 159.919 3.94696 160.197 3.78219C160.482 3.60424 160.614 3.26152 160.614 2.7079C160.614 1.7061 160.21 1.38315 158.92 1.38315H153.648V3.97992H158.365H158.358ZM158.947 7.67075C160.508 7.67075 160.892 7.37417 160.892 6.16805C160.892 4.96194 160.535 4.71808 158.735 4.71808H153.641V7.67075H158.954H158.947Z" fill="#444950" stroke="#444950" stroke-linecap="round" stroke-linejoin="round"/>
<path d="M163.757 0.592255H171.622V1.38315H164.703V4.01287H171.378V4.75763H164.703V7.67075H171.682V8.46165H163.757V0.592255Z" fill="#444950" stroke="#444950" stroke-linecap="round" stroke-linejoin="round"/>
<path d="M176.935 1.38315H172.92V0.592255H181.89V1.38315H177.888V8.46824H176.942V1.38315H176.935Z" fill="#444950" stroke="#444950" stroke-linecap="round" stroke-linejoin="round"/>
<path d="M186.799 1.38315H182.783V0.592255H191.754V1.38315H187.752V8.46824H186.806V1.38315H186.799Z" fill="#444950" stroke="#444950" stroke-linecap="round" stroke-linejoin="round"/>
<path d="M193.223 0.592255H201.089V1.38315H194.169V4.01287H200.844V4.75763H194.169V7.67075H201.149V8.46165H193.223V0.592255Z" fill="#444950" stroke="#444950" stroke-linecap="round" stroke-linejoin="round"/>
<path d="M202.995 0.592255H209.511C210.708 0.592255 211.264 0.743843 211.681 1.19202C211.998 1.54792 212.164 2.14768 212.164 2.99789C212.164 4.26991 211.866 4.72467 210.894 4.94876C211.701 5.10035 212.005 5.51557 212.005 6.4251V8.46824H211.059V6.96554C211.086 5.60784 210.742 5.2783 209.366 5.29148H203.934V8.46824H202.988V0.592255H202.995ZM209.141 4.54672C210.761 4.54672 211.178 4.23037 211.178 2.95175C211.178 1.67314 210.755 1.38315 209.081 1.38315H203.934V4.54672H209.134H209.141Z" fill="#444950" stroke="#444950" stroke-linecap="round" stroke-linejoin="round"/>
<path d="M226.612 5.81876V6.1483C226.612 7.09078 226.52 7.506 226.209 7.8619C225.911 8.2178 225.521 8.38257 224.8 8.46166C224.35 8.49462 223 8.54075 221.935 8.54075C219.077 8.54075 218.383 8.42212 217.801 7.82236C217.291 7.30169 217.172 6.67556 217.172 4.52697C217.172 2.06861 217.338 1.44248 218.145 0.934991C218.747 0.559317 219.402 0.5 222.663 0.5C224.641 0.5 225.329 0.592271 225.818 0.948173C226.354 1.31726 226.52 1.81157 226.553 3.06381H225.627V2.86609C225.627 1.47544 225.296 1.33044 221.975 1.33044C218.184 1.33044 218.158 1.34362 218.158 4.53356C218.158 6.32625 218.237 6.89306 218.575 7.23578C218.952 7.62463 219.56 7.7169 221.776 7.7169C225.336 7.7169 225.699 7.58509 225.699 6.26693V5.81876H226.626H226.612Z" fill="#444950" stroke="#444950" stroke-linecap="round" stroke-linejoin="round"/>
<path d="M237.932 1.22499C238.442 1.75884 238.561 2.37178 238.561 4.52038C238.561 6.66897 238.442 7.29509 237.932 7.82895C237.33 8.45507 236.722 8.54734 233.473 8.54734C230.225 8.54734 229.623 8.45507 229.015 7.82895C228.505 7.29509 228.386 6.68215 228.386 4.53356C228.386 2.38496 228.505 1.74566 229.015 1.22499C229.617 0.598863 230.225 0.506592 233.52 0.506592C236.814 0.506592 237.324 0.612044 237.926 1.22499H237.932ZM229.795 1.81816C229.465 2.16088 229.379 2.72768 229.379 4.53356C229.379 6.33943 229.458 6.89306 229.795 7.23578C230.199 7.66418 230.695 7.7169 233.48 7.7169C236.265 7.7169 236.761 7.64441 237.165 7.23578C237.496 6.89306 237.582 6.32625 237.582 4.53356C237.582 2.74087 237.496 2.16088 237.165 1.81816C236.801 1.41612 236.133 1.33703 233.526 1.33703C230.92 1.33703 230.172 1.42271 229.795 1.81816Z" fill="#444950" stroke="#444950" stroke-linecap="round" stroke-linejoin="round"/>
<path d="M240.585 0.592255H246.738C248.478 0.592255 249.357 0.908612 249.834 1.73905C250.191 2.31904 250.356 3.24834 250.356 4.52695C250.356 5.80556 250.191 6.74804 249.834 7.32803C249.357 8.15188 248.484 8.47483 246.738 8.47483H240.585V0.592255ZM246.804 7.67075C247.915 7.67075 248.643 7.41371 248.961 6.90622C249.232 6.45805 249.364 5.72647 249.364 4.56649C249.364 3.3472 249.225 2.52335 248.934 2.08836C248.617 1.60723 247.942 1.38315 246.731 1.38315H241.531V7.67734H246.804V7.67075Z" fill="#444950" stroke="#444950" stroke-linecap="round" stroke-linejoin="round"/>
<path d="M252.309 0.592255H260.174V1.38315H253.255V4.01287H259.93V4.75763H253.255V7.67075H260.234V8.46165H252.309V0.592255Z" fill="#444950" stroke="#444950" stroke-linecap="round" stroke-linejoin="round"/>
<path d="M100.947 70.8998C101.37 71.2952 101.721 71.5984 102.045 71.928C110.024 79.8769 117.989 87.8323 125.988 95.7615C126.682 96.4469 126.993 97.1522 126.953 98.1145C126.881 99.8018 124.267 101.502 124.254 103.19C124.241 104.646 124.168 104.725 122.759 104.732C117.281 104.745 114.456 104.765 108.978 104.758C98.2146 104.752 87.4508 104.725 76.687 104.712C76.4025 104.712 76.1181 104.712 75.8402 104.699C75.3308 104.673 75.0529 104.389 75.0463 103.895C75.0331 101.641 74.9868 99.38 75.0728 97.1258C75.0926 96.6513 75.5623 96.1372 75.9394 95.7483C78.5196 93.1316 81.1328 90.5479 83.7328 87.951C89.0386 82.6649 94.351 77.3788 99.6635 72.0927C100.054 71.7039 100.477 71.3348 100.947 70.8932V70.8998Z" fill="#444950"/>
<path d="M235.18 70.8998C237.106 72.7981 238.885 74.5447 240.645 76.3045C247.122 82.7506 253.585 89.2099 260.075 95.6429C260.757 96.3218 261.121 97.0138 261.088 97.9893C261.028 99.8216 261.088 101.654 261.055 103.493C261.035 104.6 260.909 104.699 259.824 104.758C259.354 104.785 258.878 104.772 258.408 104.772C243.351 104.772 230.946 104.772 215.889 104.772C214.943 104.772 214.003 104.772 213.057 104.725C212.125 104.686 211.966 104.567 211.939 103.658C211.88 101.496 209.187 99.3339 209.24 97.172C209.253 96.7436 209.657 96.2493 210.001 95.9065C216.326 89.5725 222.67 83.2582 229.014 76.9439C230.649 75.3159 232.283 73.6813 233.923 72.0598C234.281 71.7039 234.671 71.3744 235.18 70.913V70.8998Z" fill="#444950"/>
<path d="M194.454 19.4693C194.818 19.6274 194.878 20.0559 194.759 24.2742C194.818 25.7638 194.004 27.0161 192.337 28.6441C184.498 36.2766 176.803 44.041 169.05 51.7592C168.759 52.0492 168.434 52.3194 168.077 52.6424C167.773 52.3919 167.508 52.2074 167.283 51.9833C159.067 43.8037 150.856 35.6043 142.62 27.4445C141.892 26.7195 141.515 26.0011 141.581 24.9728C141.654 23.7996 141.594 22.6198 141.601 21.4466C141.608 19.3968 141.614 19.3836 143.612 19.3836C148.667 19.377 153.721 19.3704 158.775 19.3704C170.108 19.3704 181.448 19.3902 192.78 19.4033C193.244 19.4033 193.713 19.4429 194.454 19.4758V19.4693Z" fill="#444950"/>
<path d="M168.057 71.3018C168.553 70.8339 168.93 70.4911 169.294 70.1286C181.084 58.3832 192.866 46.6313 204.655 34.8859C209.531 30.0282 214.434 25.1969 219.296 20.3195C219.951 19.667 220.626 19.3902 221.545 19.3902C230.616 19.4165 239.686 19.4165 248.749 19.4165C250.873 19.4165 253.003 19.4759 255.127 19.3836C256.331 19.3308 257.145 19.7593 257.972 20.5898C266.969 29.5932 276.006 38.5637 285.017 47.5474C299.512 61.9886 314.001 76.4363 328.496 90.8775C330.335 92.7098 332.148 94.5619 334.013 96.3613C334.642 96.9677 334.933 97.607 334.9 98.477C334.847 100.026 334.893 101.581 334.86 103.137C334.827 104.62 334.695 104.745 333.213 104.752C327.781 104.765 322.35 104.765 316.918 104.772C307.663 104.772 298.401 104.752 289.145 104.791C287.868 104.791 286.936 104.429 286.029 103.519C277.812 95.2672 269.563 87.048 261.319 78.8223C255.815 73.3253 250.317 67.8283 244.813 62.3313C242.008 59.5367 239.203 56.7421 236.391 53.954C236.034 53.5981 235.644 53.2751 235.181 52.8467C234.684 53.3015 234.268 53.664 233.877 54.0529C220.679 67.1956 207.487 80.3317 194.295 93.4744C190.888 96.8688 187.461 100.243 184.087 103.664C183.3 104.462 182.473 104.805 181.342 104.798C172.371 104.752 163.393 104.752 154.422 104.765C153.496 104.765 152.834 104.462 152.186 103.816C139.219 90.8511 126.232 77.8996 113.239 64.9546C109.501 61.224 105.743 57.5198 101.986 53.8024C101.688 53.5058 101.364 53.2422 100.947 52.8731C99.9282 53.8485 98.9359 54.7647 97.9766 55.7204C89.7532 63.9 81.5365 72.0796 73.3197 80.2658C65.4073 88.1487 57.4949 96.0383 49.6089 103.948C48.9209 104.64 48.1799 104.752 47.3132 104.752C39.0502 104.752 30.7805 104.752 22.5174 104.752C16.1398 104.752 9.76226 104.752 3.38468 104.739C1.31395 104.739 1.30734 104.732 1.29411 102.735C1.28088 101.232 1.31395 99.7228 1.28088 98.22C1.26103 97.4422 1.59182 96.9084 2.12769 96.3811C8.91544 89.6383 15.6834 82.8693 22.4579 76.1134C36.0731 62.5291 49.6883 48.9382 63.3035 35.3539C68.3447 30.3248 73.4123 25.3288 78.4403 20.2866C79.049 19.6736 79.6708 19.377 80.5507 19.377C91.9364 19.3968 103.316 19.3968 114.701 19.377C115.574 19.377 116.196 19.6538 116.812 20.2734C132.828 36.2568 148.865 52.2271 164.895 68.1974C165.894 69.1927 166.913 70.1682 168.064 71.2887L168.057 71.3018Z" fill="#444950" fill-opacity="0.7"/>
</svg>
