<?xml version="1.0" encoding="UTF-8"?>
<svg id="Layer_1" xmlns="http://www.w3.org/2000/svg" version="1.1" viewBox="0 0 132 39">
  <!-- Generator: Adobe Illustrator 29.8.1, SVG Export Plug-In . SVG Version: 2.1.1 Build 2)  -->
  <defs>
    <style>
      .st0 {
        fill: #e13b39;
      }

      .st1 {
        fill: #083755;
      }
    </style>
  </defs>
  <g>
    <path class="st1" d="M55.6,16.1c-1-1.6-2.6-2.6-4.6-2.6-3.4,0-6.2,3-6.2,6.8s2.8,6.8,6.2,6.8,3.7-1,4.6-2.6v2.2h2.1v-12.9h-2.1v2.3ZM51.2,25c-2.5,0-4.4-2-4.4-4.6s1.9-4.6,4.4-4.6,4.4,2,4.4,4.6-1.9,4.6-4.4,4.6Z"/>
    <path class="st1" d="M63.1,16v-2.2h-2.1v12.9h2.1v-6.8c0-3.1,2-4,3.9-3.9v-2.4c-1.5,0-3,.6-3.9,2.4Z"/>
    <path class="st1" d="M70.2,8.4c-.8,0-1.5.7-1.5,1.6s.6,1.5,1.5,1.5,1.4-.6,1.4-1.5-.6-1.6-1.4-1.6Z"/>
    <rect class="st1" x="69.1" y="13.8" width="2.1" height="12.9"/>
    <path class="st1" d="M84.7,16.1c-1-1.6-2.6-2.6-4.6-2.6-3.4,0-6.2,3-6.2,6.8s2.8,6.8,6.2,6.8,3.7-1,4.6-2.6v2.2h2.1v-12.9h-2.1v2.3ZM80.3,25c-2.5,0-4.4-2-4.4-4.6s1.9-4.6,4.4-4.6,4.4,2,4.4,4.6-1.9,4.6-4.4,4.6Z"/>
    <path class="st1" d="M100.3,16.1c-1-1.6-2.6-2.6-4.6-2.6-3.4,0-6.2,3-6.2,6.8s2.8,6.8,6.2,6.8,3.7-1,4.6-2.6v2.2h2.1V8.7h-2.1v7.5ZM95.9,25c-2.5,0-4.4-2-4.4-4.6s1.9-4.6,4.4-4.6,4.4,2,4.4,4.6-1.9,4.6-4.4,4.6Z"/>
    <path class="st1" d="M111.8,13.5c-1.7,0-3.1.6-4,2.2v-1.8h-2.1v12.9h2.1v-6.8c0-3.1,1.5-4.3,3.5-4.3s3,1.2,3,3.3v7.8h2.1v-7.9c0-3.3-1.9-5.4-4.7-5.4Z"/>
    <path class="st1" d="M131.3,20.4c0-3.7-2.4-6.8-6.1-6.8s-6.5,3-6.5,6.8,2.6,6.8,6.6,6.8,4.3-1.2,5.4-2.9l-1.8-1.1c-.6,1.1-1.9,1.9-3.5,1.9s-4.1-1.4-4.5-3.6h10.3c0-.3,0-.7,0-1ZM120.9,19.4c.3-2.2,1.9-3.8,4.3-3.7,1.8,0,3.5,1.2,3.9,3.7h-8.2Z"/>
  </g>
  <path class="st0" d="M39.6,33.4L23.2,2.8c-.1-.3-.5-.5-.8-.5h-4.8c-.3,0-.6.2-.8.5L.8,33.3c-.2.3-.1.7,0,1l1.2,1.8c.2.3.5.5.8.5h11.4c.4,0,.7-.2.8-.6l3-7.3h10.5c.3,0,.6-.2.8-.5.2-.3.2-.7,0-.9l-8.4-15.9c-.1-.3-.4-.5-.7-.5h-.1c-.4,0-.8.1-1,.5l-2.3,4.3c-.3.5,0,1.1.4,1.4.5.3,1,0,1.3-.4l1.5-3,3.4,6.3h-7.4c-1,0-2,.6-2.5,1.6l-3.6,7.5c-.3.5,0,1.1.4,1.4.1,0,.3.1.5.1.3,0,.6-.2.8-.5l3.6-7.5c.2-.3.5-.5.8-.5h8.5l2.5,4.6h-9.5c-.4,0-.7.2-.8.6l-3,7.3H3.3l-.5-.9L18.3,4.3h3.6l15.8,29.6-.4.7h-3.4c0,0-1.6-1.8-1.6-1.8-.2-.2-.5-.3-.7-.3h-10.1c-.5,0-1,.5-1,1s.5,1,1,1h9.7l1.6,1.9c.2.2.5.3.7.3h4.3c.3,0,.6-.3.8-.5l.9-1.7c.1-.3.1-.7,0-1Z"/>
</svg>