<svg width="70" height="72" viewBox="0 0 70 72" fill="none" xmlns="http://www.w3.org/2000/svg"><path d="M19.162 9.55L33.94 1.194l15.909 9.2-14.778 8.498-15.909-9.34z" fill="#D33"/><path fill-rule="evenodd" clip-rule="evenodd" d="M34.11 0l16.658 10.003v19.502L35.107 38.57l-16.865-9.726V9.203L34.111 0zM19.658 10.831v17.205L34.4 36.538V19.41l-14.742-8.578zm16.156 8.58v17.125l13.54-7.839v-17.08l-13.54 7.794zm12.86-9.025l-13.565 7.808-.296-.173V2.062l13.86 8.324zM33.397 2.04V17.2L20.35 9.607 33.397 2.04zm-.872 40.83L15.868 32.869 0 42.07v19.641l16.864 9.726 15.661-9.066v-19.5zM1.415 60.905V43.699l14.741 8.578v17.129L1.414 60.903zm16.156 8.5V52.278l13.54-7.794v17.08l-13.54 7.838zm-.706-18.343l13.565-7.807-14.574-8.752-13.748 7.973 14.757 8.586zM70 43.433L53.343 33.43l-15.868 9.203v19.641L54.339 72 70 62.934V43.433zM38.889 61.465V44.261l14.742 8.578v17.129L38.89 61.465zm16.156 8.5V52.841l13.54-7.794v17.08l-13.54 7.838zm-.705-18.342l13.565-7.807-14.575-8.753-13.748 7.974 14.758 8.586zM49.996 31.81L35.12 40.13 19.017 31l-.7 1.22 16.093 9.125v19.06h1.414V41.347l14.866-8.315-.694-1.224z" fill="#3C3E4C"/></svg>