<svg width="70" height="72" viewBox="0 0 70 72" fill="none" xmlns="http://www.w3.org/2000/svg"><path fill-rule="evenodd" clip-rule="evenodd" d="M50.767 10.003L34.11 0 18.242 9.203v19.641l16.864 9.726 15.661-9.066V10.003zm-31.11 18.033V10.83l14.742 8.578v17.13l-14.743-8.503zm16.156 8.5V19.41l13.54-7.793v17.08l-13.54 7.838zm-.705-18.342l13.564-7.808-14.574-8.752L20.35 9.607l14.758 8.587zm-19.24 14.674L32.525 42.87v19.501l-15.66 9.066L0 61.712V42.071l15.868-9.203zM1.414 43.699v17.205l14.742 8.502v-17.13L1.414 43.7zm16.157 8.58v17.124l13.54-7.838v-17.08l-13.54 7.794zm12.86-9.025l-13.566 7.807-14.757-8.586L15.856 34.5l14.574 8.753zm22.912-9.824L70 43.433v19.501L54.34 72l-16.865-9.726V42.632l15.868-9.202zM38.89 44.26v17.204l14.742 8.503v-17.13L38.89 44.262zm16.156 8.58v17.124l13.541-7.838v-17.08l-13.54 7.794zm12.86-9.025L54.34 51.623l-14.757-8.586 13.748-7.974 14.574 8.753z" fill="#3C3E4C"/><path fill-rule="evenodd" clip-rule="evenodd" d="M26.483 23.986a.7.7 0 00.308-.945.71.71 0 00-.95-.306l-10.639 5.393v14.616c0 .388.317.703.707.703.39 0 .707-.315.707-.703V28.988l9.867-5.002zm16.61.632a.7.7 0 01-.309-.944.71.71 0 01.951-.307l10.639 5.393v14.616a.705.705 0 01-.708.703.705.705 0 01-.707-.703V29.62l-9.866-5.002z" fill="#D33"/></svg>