<svg width="70" height="72" viewBox="0 0 70 72" fill="none" xmlns="http://www.w3.org/2000/svg"><path fill-rule="evenodd" clip-rule="evenodd" d="M33.175 42.773l-16.99-10.187L0 41.958v19.998l17.201 9.905 15.974-9.233V42.773zM1.424 61.15V42.762l14.748-8.54 15.579 9.341v18.26L17.2 70.233 1.424 61.15zM70 43.433L53.23 33.43l-15.977 9.203v19.641L54.232 72 70 62.934V43.433zM38.676 61.466V43.439l14.54-8.375 15.36 9.161v17.902l-14.345 8.248-15.555-8.91z" fill="#3C3E4C"/><path fill-rule="evenodd" clip-rule="evenodd" d="M34.344 0l16.77 10.003v19.502L35.347 38.57l-16.98-9.726V9.203L34.344 0zM19.79 10.01v18.026l15.554 8.91 14.346-8.249V10.795L34.33 1.634l-14.54 8.375z" fill="#D33"/><path fill-rule="evenodd" clip-rule="evenodd" d="M35.36 40.378l14.978-8.32.699 1.223-14.968 8.315v19.056h-1.424V41.593L18.44 32.468l.706-1.22 16.212 9.13z" fill="#3C3E4C"/></svg>